<svg width="168" height="26" viewBox="0 0 168 26" fill="none" xmlns="http://www.w3.org/2000/svg">
<path d="M21.0605 20H17.75V4.12109L12.5645 20H9.37109L4.21484 4.17969V20H0.933594V1.16211H6.4707L10.9824 15.3125L15.4941 1.10352H21.0605V20ZM37.6637 6.96289L31.7164 23.0176C31.443 23.7207 30.9742 24.2773 30.3102 24.6875C29.6656 25.1172 28.8746 25.332 27.9371 25.332C27.1168 25.332 26.3551 25.127 25.652 24.7168C24.9684 24.3066 24.441 23.7305 24.0699 22.9883L26.15 21.4941C26.5211 22.3145 27.0777 22.7246 27.8199 22.7246C28.3082 22.7246 28.6988 22.3145 28.9918 21.4941L29.5191 20L24.1578 6.96289H27.732L31.1305 15.8105L34.2945 6.96289H37.6637Z" fill="#534859"/>
<path d="M50.7512 6.9043C50.7512 5.83008 50.3801 5.06836 49.6379 4.61914C48.9152 4.15039 47.8312 3.91602 46.3859 3.91602H44.218V9.80469H46.3859C47.8117 9.80469 48.8957 9.58984 49.6379 9.16016C50.3801 8.71094 50.7512 7.95898 50.7512 6.9043ZM54.2082 6.9043C54.2082 7.95898 54.0031 8.86719 53.593 9.62891C53.2023 10.3906 52.6457 10.9766 51.923 11.3867C51.2199 11.7969 50.4582 12.0996 49.6379 12.2949C48.8371 12.4707 47.9582 12.5586 47.0012 12.5586H44.218V20H40.7902V1.16211H47.0012C49.1105 1.16211 50.8391 1.62109 52.1867 2.53906C53.5344 3.45703 54.2082 4.91211 54.2082 6.9043ZM67.8816 13.4961C67.8816 11.9922 67.5887 10.8105 67.0027 9.95117C66.4363 9.0918 65.5867 8.66211 64.4539 8.66211C63.3406 8.66211 62.4813 9.11133 61.8758 10.0098C61.2703 10.8887 60.9676 12.0508 60.9676 13.4961C60.9676 14.9414 61.2703 16.1035 61.8758 16.9824C62.4813 17.8613 63.3406 18.3008 64.4539 18.3008C65.5867 18.3008 66.4363 17.8711 67.0027 17.0117C67.5887 16.1523 67.8816 14.9805 67.8816 13.4961ZM71.075 13.4961C71.075 15.5859 70.45 17.2559 69.2 18.5059C67.9695 19.7363 66.3875 20.3516 64.4539 20.3516C62.5008 20.3516 60.909 19.7266 59.6785 18.4766C58.448 17.207 57.8328 15.5469 57.8328 13.4961C57.8328 11.4062 58.448 9.73633 59.6785 8.48633C60.9285 7.23633 62.5203 6.61133 64.4539 6.61133C66.407 6.61133 67.9988 7.24609 69.2293 8.51562C70.4598 9.78516 71.075 11.4453 71.075 13.4961ZM82.6098 9.42383C79.5629 9.42383 78.0395 10.6543 78.0395 13.1152V20H74.9047V6.96289H78.0395V8.89648C78.4691 8.0957 78.9965 7.53906 79.6215 7.22656C80.2465 6.89453 81.2426 6.72852 82.6098 6.72852V9.42383ZM93.6172 19.9121C92.875 20.1855 92.0645 20.3223 91.1855 20.3223C90.0332 20.3223 89.0859 20.0195 88.3438 19.4141C87.6211 18.8086 87.2598 17.9199 87.2598 16.748V9.01367H84.7402V6.96289H87.2598V4.73633L90.3945 3.18359V6.96289H93.4414V9.01367H90.3945V16.0742C90.3945 17.4414 91.0195 18.125 92.2695 18.125C92.7383 18.125 93.1875 18.0469 93.6172 17.8906V19.9121ZM106.5 13.4961C106.5 11.9922 106.207 10.8105 105.621 9.95117C105.054 9.0918 104.205 8.66211 103.072 8.66211C101.959 8.66211 101.099 9.11133 100.494 10.0098C99.8883 10.8887 99.5855 12.0508 99.5855 13.4961C99.5855 14.9414 99.8883 16.1035 100.494 16.9824C101.099 17.8613 101.959 18.3008 103.072 18.3008C104.205 18.3008 105.054 17.8711 105.621 17.0117C106.207 16.1523 106.5 14.9805 106.5 13.4961ZM109.693 13.4961C109.693 15.5859 109.068 17.2559 107.818 18.5059C106.588 19.7363 105.005 20.3516 103.072 20.3516C101.119 20.3516 99.527 19.7266 98.2965 18.4766C97.066 17.207 96.4508 15.5469 96.4508 13.4961C96.4508 11.4062 97.066 9.73633 98.2965 8.48633C99.5465 7.23633 101.138 6.61133 103.072 6.61133C105.025 6.61133 106.617 7.24609 107.847 8.51562C109.078 9.78516 109.693 11.4453 109.693 13.4961ZM120.847 3.38867C120.339 3.13477 119.851 3.00781 119.382 3.00781C118.718 3.00781 118.259 3.17383 118.005 3.50586C117.751 3.81836 117.624 4.33594 117.624 5.05859V6.96289H120.495V9.01367H117.624V20H114.46V9.01367H112.058V6.96289H114.46V4.9707C114.46 3.4668 114.782 2.40234 115.427 1.77734C116.071 1.15234 117.077 0.839844 118.445 0.839844C119.245 0.839844 120.046 0.976562 120.847 1.25V3.38867ZM133.026 13.4961C133.026 11.9922 132.733 10.8105 132.147 9.95117C131.581 9.0918 130.731 8.66211 129.598 8.66211C128.485 8.66211 127.626 9.11133 127.02 10.0098C126.415 10.8887 126.112 12.0508 126.112 13.4961C126.112 14.9414 126.415 16.1035 127.02 16.9824C127.626 17.8613 128.485 18.3008 129.598 18.3008C130.731 18.3008 131.581 17.8711 132.147 17.0117C132.733 16.1523 133.026 14.9805 133.026 13.4961ZM136.22 13.4961C136.22 15.5859 135.595 17.2559 134.345 18.5059C133.114 19.7363 131.532 20.3516 129.598 20.3516C127.645 20.3516 126.054 19.7266 124.823 18.4766C123.593 17.207 122.977 15.5469 122.977 13.4961C122.977 11.4062 123.593 9.73633 124.823 8.48633C126.073 7.23633 127.665 6.61133 129.598 6.61133C131.552 6.61133 133.143 7.24609 134.374 8.51562C135.604 9.78516 136.22 11.4453 136.22 13.4961ZM143.184 20H140.049V1.16211H143.184V20ZM150.676 20H147.541V6.96289H150.676V20ZM150.881 4.23828H147.307V1.16211H150.881V4.23828ZM164.584 13.4961C164.584 11.9922 164.291 10.8105 163.705 9.95117C163.138 9.0918 162.289 8.66211 161.156 8.66211C160.043 8.66211 159.183 9.11133 158.578 10.0098C157.972 10.8887 157.67 12.0508 157.67 13.4961C157.67 14.9414 157.972 16.1035 158.578 16.9824C159.183 17.8613 160.043 18.3008 161.156 18.3008C162.289 18.3008 163.138 17.8711 163.705 17.0117C164.291 16.1523 164.584 14.9805 164.584 13.4961ZM167.777 13.4961C167.777 15.5859 167.152 17.2559 165.902 18.5059C164.671 19.7363 163.089 20.3516 161.156 20.3516C159.203 20.3516 157.611 19.7266 156.38 18.4766C155.15 17.207 154.535 15.5469 154.535 13.4961C154.535 11.4062 155.15 9.73633 156.38 8.48633C157.63 7.23633 159.222 6.61133 161.156 6.61133C163.109 6.61133 164.701 7.24609 165.931 8.51562C167.162 9.78516 167.777 11.4453 167.777 13.4961Z" fill="#F9698D"/>
</svg>
