<svg width="30" height="31" viewBox="0 0 30 31" fill="none" xmlns="http://www.w3.org/2000/svg">
<path d="M29.9238 9.04524C29.8535 7.41053 29.5956 6.28669 29.2263 5.31286C28.8453 4.27916 28.2591 3.3537 27.4912 2.58435C26.7408 1.80304 25.8323 1.19592 24.8358 0.811367C23.8805 0.432682 22.7902 0.16833 21.1958 0.0962559C19.5896 0.0180773 19.0797 0 15.0058 0C10.932 0 10.4221 0.0180773 8.82179 0.0901519C7.22747 0.162226 6.13138 0.426813 5.18184 0.805263C4.17345 1.19592 3.27085 1.79693 2.52051 2.58435C1.7585 3.3537 1.16661 4.28527 0.791323 5.30699C0.421993 6.28669 0.164172 7.40443 0.0938781 9.03914C0.0176307 10.6861 0 11.2089 0 15.3859C0 19.563 0.0176307 20.0858 0.0879248 21.7266C0.158219 23.3613 0.416269 24.4852 0.785599 25.459C1.16661 26.4927 1.7585 27.4182 2.52051 28.1875C3.27085 28.9688 4.17941 29.5759 5.17589 29.9605C6.13138 30.3392 7.22151 30.6035 8.81607 30.6756C10.4161 30.7479 10.9263 30.7657 15.0001 30.7657C19.074 30.7657 19.5839 30.7479 21.1842 30.6756C22.7785 30.6035 23.8746 30.3392 24.8241 29.9605C26.8407 29.1611 28.435 27.5264 29.2146 25.459C29.5837 24.4793 29.8418 23.3613 29.9121 21.7266C29.9824 20.0858 30 19.563 30 15.3859C30 11.2089 29.994 10.6861 29.9238 9.04524ZM27.2217 21.6064C27.1571 23.1089 26.911 23.9203 26.7058 24.4612C26.2016 25.8015 25.1641 26.8653 23.8569 27.3822C23.3294 27.5926 22.5323 27.845 21.0727 27.9109C19.49 27.9832 19.0153 28.0011 15.0118 28.0011C11.0082 28.0011 10.5276 27.9832 8.9507 27.9109C7.48529 27.845 6.69396 27.5926 6.16642 27.3822C5.51591 27.1357 4.92379 26.7451 4.44318 26.2342C3.94494 25.7353 3.56393 25.1343 3.32351 24.4673C3.11836 23.9264 2.87221 23.1089 2.80787 21.6125C2.73735 19.9898 2.71995 19.5029 2.71995 15.3979C2.71995 11.2929 2.73735 10.8002 2.80787 9.18352C2.87221 7.68099 3.11836 6.86962 3.32351 6.32871C3.56393 5.66149 3.94494 5.05461 4.44913 4.56159C4.93547 4.05073 5.52163 3.66007 6.17237 3.4138C6.69992 3.20344 7.49719 2.95107 8.95666 2.88486C10.5393 2.81279 11.0142 2.79471 15.0175 2.79471C19.027 2.79471 19.5017 2.81279 21.0786 2.88486C22.544 2.95107 23.3353 3.20344 23.8629 3.4138C24.5134 3.66007 25.1055 4.05073 25.5861 4.56159C26.0844 5.06048 26.4654 5.66149 26.7058 6.32871C26.911 6.86962 27.1571 7.68686 27.2217 9.18352C27.292 10.8063 27.3096 11.2929 27.3096 15.3979C27.3096 19.5029 27.292 19.9837 27.2217 21.6064Z" fill="#F9698D"/>
<path d="M15.0056 7.48279C10.7501 7.48279 7.29749 11.0227 7.29749 15.3862C7.29749 19.7497 10.7501 23.2896 15.0056 23.2896C19.2612 23.2896 22.7136 19.7497 22.7136 15.3862C22.7136 11.0227 19.2612 7.48279 15.0056 7.48279ZM15.0056 20.5129C12.2449 20.5129 10.0055 18.2171 10.0055 15.3862C10.0055 12.5553 12.2449 10.2594 15.0056 10.2594C17.7665 10.2594 20.0056 12.5553 20.0056 15.3862C20.0056 18.2171 17.7665 20.5129 15.0056 20.5129Z" fill="#F9698D"/>
<path d="M24.8186 7.17032C24.8186 8.18922 24.0128 9.01538 23.0188 9.01538C22.0251 9.01538 21.2194 8.18922 21.2194 7.17032C21.2194 6.15118 22.0251 5.32526 23.0188 5.32526C24.0128 5.32526 24.8186 6.15118 24.8186 7.17032Z" fill="#F9698D"/>
</svg>
