<svg width="34" height="35" viewBox="0 0 34 35" fill="none" xmlns="http://www.w3.org/2000/svg">
<path d="M0 15.0085C0 22.4237 5.98913 28.6637 14.1578 29.8317C14.7059 29.9553 14.8277 30.0833 14.8305 30.0833C14.931 30.3175 14.6747 31.4375 14.5642 32.5168C14.2853 34.4295 15.472 35.4288 17.442 34.5401C19.3057 33.7008 26.9206 28.5168 30.3464 24.2695C34.1064 19.8245 35.0142 14.4616 32.8375 9.55393C25.9548 -5.94859 0 -1.47878 0 15.0085H0ZM28.7263 22.8572C25.6078 26.7233 18.5976 31.5626 16.7055 32.4862C16.9491 30.479 17.6671 28.3903 14.5331 27.6848C7.34302 26.655 2.12431 21.3241 2.12431 15.0085C2.12431 0.871763 24.9648 -2.9275 30.903 10.4587C32.72 14.5546 31.934 19.0666 28.7263 22.8572Z" fill="#F9698D"/>
<path d="M10.7605 17.0434H9.05253V11.0201C9.05253 10.4179 8.57668 9.9292 7.99038 9.9292C7.40407 9.9292 6.92822 10.4179 6.92822 11.0201V18.1358C6.92822 18.738 7.40407 19.2267 7.99038 19.2267H10.7605C12.1653 19.2252 12.1653 17.0434 10.7605 17.0434Z" fill="#F9698D"/>
<path d="M12.4693 11.0202C12.7865 16.5009 11.689 19.2267 13.5315 19.2267C14.1178 19.2267 14.5936 18.738 14.5936 18.1358V11.0202C14.5936 9.57732 12.4693 9.57587 12.4693 11.0202Z" fill="#F9698D"/>
<path d="M25.9986 12.111C27.4035 12.111 27.4049 9.9292 25.9986 9.9292H23.2285C22.6422 9.9292 22.1664 10.4179 22.1664 11.0201V18.1358C22.1664 18.738 22.6422 19.2267 23.2285 19.2267H25.9986C27.4035 19.2267 27.4049 17.0449 25.9986 17.0449H24.2907V15.6689H25.9986C27.4035 15.6689 27.4049 13.487 25.9986 13.487H24.2907V12.111H25.9986Z" fill="#F9698D"/>
<path d="M19.3947 11.0201V14.1968L17.2123 10.4601C16.6572 9.5117 15.2382 9.92043 15.2382 11.0215V18.1372C15.2382 18.7394 15.714 19.2281 16.3003 19.2281C16.8866 19.2281 17.3625 18.7394 17.3625 18.1372V14.9605L19.5448 18.6972C19.7417 19.0318 20.0901 19.2267 20.4569 19.2267C20.5503 19.2267 20.6466 19.2136 20.7401 19.1874C21.2004 19.0565 21.519 18.626 21.519 18.1358V11.0201C21.519 9.57716 19.3947 9.5757 19.3947 11.0201Z" fill="#F9698D"/>
</svg>
