<svg width="29" height="32" viewBox="0 0 29 32" fill="none" xmlns="http://www.w3.org/2000/svg">
<path d="M4.18914 1.62494C2.19554 1.62494 0.89209 3.06946 0.89209 4.96808C0.89209 6.82477 2.15671 8.31049 4.11264 8.31049H4.15047C6.18306 8.31049 7.44802 6.82477 7.44802 4.96808C7.41002 3.06946 6.18306 1.62494 4.18914 1.62494Z" fill="#F9698D"/>
<path d="M1.23657 10.9521H7.06469V30.3002H1.23657V10.9521Z" fill="#F9698D"/>
<path d="M21.37 10.498C18.226 10.498 16.1177 13.7581 16.1177 13.7581V10.9521H10.2894V30.3002H16.1174V19.4955C16.1174 18.9171 16.1554 18.3395 16.3094 17.9259C16.7307 16.7709 17.6895 15.5743 19.2996 15.5743C21.4085 15.5743 22.252 17.3486 22.252 19.9496V30.3002H28.0796V19.2064C28.0796 13.2635 25.2042 10.498 21.37 10.498Z" fill="#F9698D"/>
</svg>
